
        <svg xmlns="http://www.w3.org/2000/svg" xmlns:xlink="http://www.w3.org/1999/xlink" version="1.1" width="3146.3414634146343" height="1221.9512195121952" viewBox="0 0 3146.3414634146343 1221.9512195121952">
			
			<g transform="scale(7.317073170731708) translate(10, 10)">
				<defs id="SvgjsDefs1876"/><g id="SvgjsG1877" featureKey="rootContainer" transform="matrix(1,0,0,1,0,0)" fill="#000"><rect width="410" height="147" rx="10"/></g><g id="SvgjsG1878" featureKey="symbolFeature-0" transform="matrix(0.08884849370240774,0,0,0.08884849370240774,19.999197582974087,19.99919758297409)" fill="#ffffff"><g xmlns="http://www.w3.org/2000/svg"><polygon points="1152.1,608.1 1152.1,711.9 1144.1,736.7 1144.1,583.3  "/><polygon points="1152.1,419.2 1152.1,500.1 1144.1,489 1144.1,413.3  "/><polygon points="1152.1,513.8 1152.1,582 1144.1,557.3 1144.1,502.7  "/><path d="M302.4,1152.2h-65.5c-38.1,0-69.1-31-69.1-69.1v-65.5l8.1,2.6v62.9c0,33.6,27.4,61,61,61h62.9L302.4,1152.2z"/><polygon points="1011.7,1144.1 1009.1,1152.2 910.8,1152.2 916.6,1144.1  "/><polygon points="175.9,762.7 175.9,817.3 167.8,806.2 167.8,737.9  "/><polygon points="175.9,831 175.9,906.7 167.8,900.8 167.8,819.9  "/><polygon points="736.7,1144.1 711.9,1152.2 608.1,1152.2 583.4,1144.1  "/><path d="M1152.1,1017.6v65.5c0,38.1-31,69.1-69.1,69.1h-65.5l2.6-8h62.9c33.7,0,61-27.4,61-61v-62.9L1152.1,1017.6z"/><polygon points="500.1,1152.2 419.2,1152.2 413.3,1144.1 489,1144.1  "/><polygon points="1152.1,738 1152.1,806.2 1144.1,817.3 1144.1,762.7  "/><polygon points="736.7,175.9 583.3,175.9 608.1,167.9 711.9,167.9  "/><polygon points="1152.1,310.9 1152.1,409.2 1144.1,403.4 1144.1,308.3  "/><polygon points="1011.7,175.9 916.6,175.9 910.8,167.9 1009.1,167.9  "/><polygon points="906.7,1144.1 900.8,1152.2 819.9,1152.2 831,1144.1  "/><polygon points="175.9,583.4 175.9,736.7 167.8,711.9 167.8,608.1  "/><polygon points="1152.1,819.9 1152.1,900.8 1144.1,906.7 1144.1,831  "/><polygon points="175.9,413.4 175.9,489 167.8,500.1 167.8,419.2  "/><polygon points="175.9,502.7 175.9,557.3 167.8,582.1 167.8,513.8  "/><polygon points="817.3,1144.1 806.2,1152.2 737.9,1152.2 762.7,1144.1  "/><polygon points="409.2,1152.2 310.9,1152.2 308.3,1144.1 403.4,1144.1  "/><polygon points="175.9,916.6 175.9,1011.7 167.8,1009.1 167.8,910.8  "/><polygon points="582.1,1152.2 513.8,1152.2 502.7,1144.1 557.3,1144.1  "/><polygon points="1152.1,910.8 1152.1,1009.1 1144.1,1011.7 1144.1,916.6  "/><path d="M1152.1,236.9v65.5l-8-2.6v-62.9c0-33.6-27.4-61-61-61h-62.9l-2.6-8h65.5C1121.2,167.9,1152.1,198.9,1152.1,236.9z"/><polygon points="582,167.9 557.3,175.9 502.7,175.9 513.8,167.9  "/><path d="M302.4,167.9l-2.6,8h-62.9c-33.7,0-61,27.4-61,61v62.9l-8.1,2.6v-65.5c0-38.1,31-69.1,69.1-69.1H302.4z"/><polygon points="500.1,167.9 489,175.9 413.3,175.9 419.2,167.9  "/><polygon points="409.2,167.9 403.4,175.9 308.3,175.9 310.9,167.9  "/><polygon points="906.7,175.9 831,175.9 819.9,167.9 900.8,167.9  "/><polygon points="817.3,175.9 762.7,175.9 738,167.9 806.2,167.9  "/><polygon points="175.9,308.3 175.9,403.4 167.8,409.3 167.8,310.9  "/><polygon points="146.8,647 142.5,660 117.5,583.1 123.4,575  "/><polygon points="275.8,1044.2 266.4,1041.1 241.4,964.2 252.4,972.2  "/><polygon points="745,123.4 673,146.8 660,142.5 737,117.5  "/><polygon points="660,1177.5 583.1,1202.5 575,1196.6 647,1173.3  "/><polygon points="355.8,241.4 347.8,252.4 275.8,275.8 278.9,266.4  "/><polygon points="223.3,882.6 208,861.5 175.9,762.7 175.9,736.7  "/><polygon points="882.5,1096.7 861.5,1112 762.7,1144.1 736.7,1144.1  "/><polygon points="1078.7,355.8 1067.6,347.8 1044.2,275.8 1053.7,278.9  "/><polygon points="1104,433.8 1088.7,412.7 1071.8,360.8 1082.9,368.9  "/><polygon points="583.3,175.9 437.5,223.3 458.6,208 557.3,175.9  "/><polygon points="660,151 608.1,167.9 582,167.9 647,146.8  "/><polygon points="1144.1,557.3 1144.1,583.3 1096.7,437.5 1112,458.6  "/><polygon points="1173.3,647 1169,660 1152.1,608.1 1152.1,582  "/><polygon points="737.9,1152.2 673,1173.3 660,1169 711.9,1152.2  "/><polygon points="959.2,1071.8 951.1,1082.9 886.2,1104 907.3,1088.7  "/><polygon points="433.8,216 412.7,231.3 360.8,248.2 368.8,237.1  "/><polygon points="167.8,711.9 167.8,737.9 146.8,673 151,660  "/><polygon points="248.2,959.2 237.1,951.1 216,886.2 231.3,907.3  "/><polygon points="1050.6,269.4 1041.1,266.4 1011.7,175.9 1020.2,175.9  "/><polygon points="1144.1,1011.7 1144.1,1020.2 1050.6,1050.6 1053.7,1041.1  "/><polygon points="1236,840 1229.1,844.9 1199.7,754.5 1205.6,746.4  "/><path d="M1017.6,167.9h-8.5L989.7,108c-5-15.5-15.8-28.1-30.3-35.5s-31.1-8.7-46.6-3.7L853,88.3l-5-6.9l62.3-20.2   c17.5-5.7,36.3-4.2,52.7,4.2c16.4,8.4,28.6,22.6,34.3,40.2L1017.6,167.9z"/><polygon points="573.6,1205.6 480.1,1236 475.1,1229.1 565.6,1199.7  "/><polygon points="844.9,90.9 754.5,120.3 746.4,114.5 839.9,84.1  "/><polygon points="269.4,269.4 266.4,278.9 175.9,308.3 175.9,299.8  "/><polygon points="308.3,1144.1 299.8,1144.1 269.4,1050.6 278.9,1053.7  "/><polygon points="1202.5,737 1196.6,745 1173.3,673 1177.5,660  "/><polygon points="120.3,565.5 114.4,573.6 84.1,480.1 90.9,475.1  "/><path d="M167.8,302.4v8.5L108,330.3c-15.5,5-28.1,15.8-35.5,30.3c-7.4,14.5-8.7,31.1-3.7,46.6l19.4,59.8l-6.9,5l-20.2-62.3   c-5.7-17.5-4.2-36.3,4.2-52.7c8.4-16.4,22.6-28.6,40.2-34.3L167.8,302.4z"/><path d="M1254.7,963c-8.4,16.4-22.7,28.6-40.2,34.3l-62.3,20.2v-8.5l59.8-19.4c15.5-5,28.1-15.8,35.5-30.3   c7.4-14.5,8.7-31.1,3.7-46.6l-19.4-59.8l6.8-5l20.2,62.3C1264.5,927.9,1263,946.6,1254.7,963z"/><polygon points="1044.2,1044.2 1041.1,1053.7 964.2,1078.7 972.2,1067.6  "/><path d="M472,1238.6l-62.3,20.2c-7.1,2.3-14.2,3.4-21.3,3.4c-29.1,0-56.3-18.6-65.7-47.7l-20.2-62.3h8.5l19.4,59.8   c10.4,32,44.9,49.6,76.9,39.2l59.8-19.4L472,1238.6z"/><polygon points="1144.1,1011.7 1144.1,1020.2 1152.2,1017.6 1152.2,1009.1  "/><polygon points="167.9,711.9 167.9,737.9 175.9,762.7 175.9,736.7  "/><polygon points="608.1,167.9 582,167.9 557.3,175.9 583.3,175.9  "/><polygon points="711.9,1152.2 737.9,1152.2 762.7,1144.1 736.7,1144.1  "/><polygon points="1011.7,175.9 1020.2,175.9 1017.6,167.9 1009.1,167.9  "/><polygon points="175.9,308.3 175.9,299.8 167.9,302.4 167.9,310.9  "/><polygon points="308.3,1144.1 299.8,1144.1 302.4,1152.2 310.9,1152.2  "/><polygon points="1152.2,608.1 1152.2,582 1144.1,557.3 1144.1,583.3  "/><path d="M848,81.5l-8,2.6l-37-50.9C791,16.8,772.4,8.1,753.5,8.1c-12.4,0-25,3.8-35.8,11.6l-50.9,37l-6.9-5l53-38.5   c30.8-22.4,74.1-15.5,96.5,15.3L848,81.5z"/><polygon points="307.6,307.7 292.3,328.8 248.2,360.8 252.4,347.8  "/><polygon points="502.7,175.9 458.6,208 433.8,216 489,175.9  "/><polygon points="910.8,167.9 900.8,167.9 844.9,90.9 853,88.3  "/><polygon points="575,123.4 513.8,167.9 500.1,167.9 565.6,120.3  "/><polygon points="886.2,1104 831,1144.1 817.3,1144.1 861.5,1112  "/><polygon points="1071.8,959.2 1067.6,972.2 1012.3,1012.4 1027.6,991.3  "/><polygon points="660,61.6 583.1,117.5 573.6,114.5 653.2,56.7  "/><path d="M19.7,602.3l37,50.9l-5,6.8l-38.5-53c-22.4-30.8-15.5-74.1,15.3-96.5l53-38.5l2.6,8l-50.9,37C6,536.8-0.1,575.1,19.7,602.3   z"/><polygon points="1144.1,489 1144.1,502.7 1112,458.6 1104,433.8  "/><polygon points="1006.6,1006.6 991.3,1027.7 907.3,1088.7 882.5,1096.7  "/><polygon points="1263.4,653.2 1258.4,660 1202.5,583.1 1205.6,573.6  "/><polygon points="964.2,241.4 951.1,237.1 906.7,175.9 916.6,175.9  "/><polygon points="1199.7,565.6 1196.6,575 1152.1,513.8 1152.1,500.1  "/><polygon points="1096.7,437.5 1006.6,313.4 1027.6,328.7 1088.7,412.7  "/><path d="M660,1268.3l-53,38.5c-12.2,8.9-26.4,13.2-40.5,13.2c-21.4,0-42.5-9.9-56-28.4l-38.5-53l8.1-2.6l37,50.9   c19.8,27.2,58,33.3,85.2,13.5l50.9-37L660,1268.3z"/><polygon points="1012.3,307.6 991.3,292.3 959.2,248.2 972.2,252.4  "/><polygon points="819.9,1152.2 754.5,1199.7 745,1196.6 806.2,1152.2  "/><path d="M1319.2,764.4c-2.9,18.2-12.7,34.2-27.6,45.1l-53,38.5l-2.6-8.1l50.9-37c13.2-9.6,21.9-23.7,24.4-39.8   c2.5-16.1-1.3-32.2-10.9-45.4l-37-50.9l5-6.8l38.5,53C1317.7,727.9,1322.1,746.2,1319.2,764.4z"/><polygon points="437.5,223.3 313.4,313.5 328.7,292.4 412.7,231.3  "/><polygon points="1144.1,906.7 1144.1,916.6 1078.7,964.2 1082.9,951.2  "/><polygon points="413.3,1144.1 403.4,1144.1 355.8,1078.7 368.8,1082.9  "/><polygon points="167.8,806.2 167.8,819.9 120.3,754.5 123.4,745  "/><polygon points="746.4,1205.6 666.9,1263.4 660,1258.4 737,1202.5  "/><polygon points="216,886.2 175.9,831 175.9,817.3 208,861.5  "/><polygon points="1231.7,853 1152.1,910.8 1152.1,900.8 1229.1,844.9  "/><polygon points="241.4,355.9 237.1,368.9 175.9,413.4 175.9,403.4  "/><polygon points="117.5,737 114.4,746.4 56.6,666.9 61.6,660  "/><polygon points="313.4,1006.6 292.3,991.3 231.3,907.3 223.3,882.6  "/><polygon points="360.8,1071.8 347.8,1067.6 307.6,1012.3 328.7,1027.6  "/><polygon points="167.8,409.3 167.8,419.2 90.9,475.1 88.3,467.1  "/><polygon points="475.1,1229.1 467,1231.7 409.2,1152.2 419.2,1152.2  "/><polygon points="1144.1,502.7 1152.2,513.8 1152.2,500.1 1144.1,489  "/><polygon points="403.4,1144.1 409.2,1152.2 419.2,1152.2 413.3,1144.1  "/><polygon points="175.9,817.3 167.9,806.2 167.9,819.9 175.9,831  "/><polygon points="502.7,175.9 513.8,167.9 500.1,167.9 489,175.9  "/><polygon points="175.9,403.4 167.9,409.3 167.9,419.2 175.9,413.4  "/><polygon points="817.3,1144.1 806.2,1152.2 819.9,1152.2 831,1144.1  "/><polygon points="1144.1,916.6 1152.2,910.8 1152.2,900.8 1144.1,906.7  "/><polygon points="916.6,175.9 910.8,167.9 900.8,167.9 906.7,175.9  "/><polygon points="1229.1,844.9 1231.7,853 1238.6,848 1236,840  "/><polygon points="844.9,90.9 853,88.3 848,81.5 839.9,84.1  "/><polygon points="475.1,1229.1 467,1231.7 472,1238.6 480.1,1236  "/><polygon points="208,861.5 216,886.3 231.3,907.3 223.3,882.6  "/><polygon points="90.9,475.1 88.3,467.1 81.5,472 84.1,480.1  "/><polygon points="861.5,1112 886.2,1104 907.3,1088.7 882.5,1096.7  "/><polygon points="458.6,208 433.8,216 412.7,231.3 437.5,223.3  "/><polygon points="1112,458.6 1104,433.8 1088.7,412.8 1096.7,437.5  "/><polygon points="167.8,900.8 167.8,910.8 88.3,853 90.9,844.9  "/><polygon points="437.5,1096.7 412.7,1088.7 328.7,1027.6 313.4,1006.6  "/><polygon points="216,433.8 208,458.5 175.9,502.7 175.9,489  "/><polygon points="1006.6,313.4 882.5,223.3 907.3,231.3 991.3,292.3  "/><polygon points="1263.4,666.9 1205.6,746.4 1202.5,737 1258.4,660  "/><polygon points="117.5,583.1 61.6,660 56.6,653.2 114.4,573.6  "/><path d="M1306.8,607l-38.5,53l-5-6.8l37-50.9c9.6-13.2,13.4-29.3,10.9-45.4c-2.6-16.1-11.2-30.2-24.4-39.8l-50.9-37l2.6-8l53,38.5   c14.9,10.8,24.7,26.8,27.6,45.1C1322.1,573.8,1317.7,592.1,1306.8,607z"/><polygon points="502.7,1144.1 489,1144.1 433.8,1104 458.6,1112  "/><polygon points="964.2,1078.7 916.6,1144.1 906.7,1144.1 951.1,1082.9  "/><polygon points="910.8,1152.2 853,1231.7 844.9,1229.1 900.8,1152.2  "/><polygon points="307.6,1012.3 252.4,972.2 248.2,959.2 292.3,991.3  "/><polygon points="660,1258.4 653.2,1263.4 573.6,1205.6 583.1,1202.5  "/><polygon points="241.4,964.2 175.9,916.6 175.9,906.7 237.1,951.1  "/><polygon points="313.4,313.5 223.3,437.5 231.3,412.7 292.3,328.8  "/><polygon points="167.8,500.1 167.8,513.8 123.4,575 120.3,565.5  "/><polygon points="746.4,114.5 737,117.5 660,61.6 666.9,56.7  "/><path d="M660,51.7l-6.8,5l-50.9-37C575.1-0.1,536.8,5.9,517,33.2l-37,50.9l-8.1-2.6l38.5-53C532.9-2.4,576.2-9.2,607,13.2L660,51.7   z"/><polygon points="1231.7,467 1229.1,475.1 1152.1,419.2 1152.1,409.2  "/><polygon points="819.9,167.9 806.2,167.9 745,123.4 754.5,120.3  "/><polygon points="575,1196.6 565.6,1199.7 500.1,1152.2 513.8,1152.2  "/><polygon points="1096.7,882.5 1088.7,907.3 1027.6,991.3 1006.6,1006.6  "/><path d="M84.1,839.9l-2.6,8.1l-53-38.5C-2.4,787.1-9.2,743.8,13.2,713l38.5-53l5,6.8l-37,50.9C-0.1,745,6,783.2,33.2,803   L84.1,839.9z"/><polygon points="1144.1,403.4 1144.1,413.3 1082.9,368.9 1078.7,355.8  "/><polygon points="886.2,216 861.5,208 817.3,175.9 831,175.9  "/><polygon points="1144.1,817.3 1144.1,831 1104,886.2 1112,861.4  "/><polygon points="475.1,90.9 419.2,167.9 409.2,167.9 467,88.3  "/><polygon points="360.8,248.2 328.7,292.4 307.6,307.7 347.8,252.4  "/><polygon points="1012.3,1012.4 972.2,1067.6 959.2,1071.8 991.3,1027.7  "/><polygon points="1071.8,360.8 1027.6,328.7 1012.3,307.6 1067.6,347.8  "/><polygon points="413.3,175.9 368.8,237.1 355.8,241.4 403.4,175.9  "/><polygon points="1199.7,754.5 1152.1,819.9 1152.1,806.2 1196.6,745  "/><path d="M848,1238.6l-38.5,53c-10.8,14.9-26.8,24.7-45.1,27.6c-3.7,0.6-7.3,0.9-11,0.9c-14.5,0-28.5-4.5-40.5-13.2l-53-38.5l6.9-5   l50.9,37c13.2,9.6,29.3,13.5,45.4,10.9c16.1-2.6,30.2-11.2,39.8-24.4l37-50.9L848,1238.6z"/><polygon points="900.8,1152.2 910.8,1152.2 916.6,1144.1 906.7,1144.1  "/><polygon points="502.7,1144.1 489,1144.1 500.1,1152.2 513.8,1152.2  "/><polygon points="817.3,175.9 831,175.9 819.9,167.9 806.3,167.9  "/><polygon points="175.9,502.7 175.9,489 167.9,500.1 167.9,513.8  "/><polygon points="1144.1,817.3 1144.1,831 1152.2,819.9 1152.2,806.2  "/><polygon points="1152.2,419.2 1152.2,409.2 1144.1,403.4 1144.1,413.3  "/><polygon points="167.9,900.8 167.9,910.8 175.9,916.6 175.9,906.7  "/><polygon points="419.2,167.9 409.2,167.9 403.4,175.9 413.3,175.9  "/><polygon points="360.8,248.2 368.8,237.1 355.8,241.4 347.8,252.4  "/><polygon points="248.2,959.2 237.1,951.2 241.4,964.2 252.4,972.2  "/><polygon points="959.2,1071.8 951.1,1082.9 964.2,1078.7 972.2,1067.6  "/><polygon points="754.5,120.3 746.4,114.5 737,117.5 745,123.4  "/><polygon points="1071.8,360.8 1082.9,368.9 1078.7,355.8 1067.6,347.8  "/><polygon points="565.6,1199.7 573.6,1205.6 583.1,1202.5 575,1196.6  "/><polygon points="120.3,565.6 114.5,573.6 117.5,583.1 123.4,575  "/><polygon points="1199.7,754.5 1205.6,746.4 1202.5,737 1196.6,745  "/><polygon points="328.7,292.4 307.6,307.7 292.3,328.8 313.4,313.5  "/><polygon points="660,1258.4 653.2,1263.4 660,1268.3 666.9,1263.4  "/><polygon points="61.6,660 56.6,653.2 51.7,660 56.6,666.9  "/><polygon points="660,61.6 666.9,56.7 660,51.7 653.2,56.7  "/><polygon points="292.3,991.3 307.6,1012.3 328.7,1027.6 313.4,1006.6  "/><polygon points="1258.4,660 1263.4,666.9 1268.3,660 1263.4,653.2  "/><polygon points="991.3,1027.7 1012.3,1012.4 1027.6,991.3 1006.6,1006.6  "/><polygon points="1027.6,328.7 1012.3,307.6 991.3,292.3 1006.6,313.4  "/><polygon points="146.8,673 123.4,745 117.5,737 142.5,660  "/><polygon points="223.3,437.5 175.9,583.4 175.9,557.3 208,458.5  "/><path d="M1017.6,1152.2l-20.2,62.3c-9.5,29.2-36.6,47.7-65.7,47.7c-7.1,0-14.2-1.1-21.3-3.4l-62.3-20.2l5-6.8l59.8,19.4   c6.2,2,12.6,3,18.8,3c25.7,0,49.7-16.4,58.1-42.2l19.4-59.8H1017.6z"/><path d="M167.8,1009.1v8.5l-62.3-20.2C88,991.6,73.7,979.4,65.4,963c-8.4-16.4-9.9-35.2-4.2-52.7L81.4,848l6.9,5l-19.4,59.8   c-5,15.5-3.7,32,3.7,46.6c7.4,14.5,20,25.3,35.5,30.3L167.8,1009.1z"/><polygon points="1144.1,736.7 1144.1,762.7 1112,861.4 1096.7,882.5  "/><polygon points="1236,480.1 1205.6,573.6 1199.7,565.6 1229.1,475.1  "/><polygon points="583.4,1144.1 557.3,1144.1 458.6,1112 437.5,1096.7  "/><polygon points="745,1196.6 737,1202.5 660,1177.5 673,1173.3  "/><polygon points="660,142.5 647,146.8 575,123.4 583.1,117.5  "/><polygon points="275.8,275.8 252.4,347.8 241.4,355.9 266.4,278.9  "/><polygon points="1044.2,275.8 972.2,252.4 964.2,241.4 1041.1,266.4  "/><polygon points="959.2,248.2 907.3,231.3 886.2,216 951.1,237.1  "/><polygon points="308.3,175.9 278.9,266.4 269.4,269.4 299.8,175.9  "/><polygon points="248.2,360.8 231.3,412.7 216,433.8 237.1,368.9  "/><polygon points="167.8,582.1 167.8,608.1 151,660 146.8,647  "/><polygon points="1078.7,964.2 1053.7,1041.1 1044.2,1044.2 1067.6,972.2  "/><polygon points="1144.1,299.8 1144.1,308.3 1053.7,278.9 1050.6,269.4  "/><polygon points="1104,886.2 1082.9,951.2 1071.8,959.2 1088.7,907.3  "/><polygon points="573.6,114.5 565.6,120.3 475.1,90.9 480.1,84.1  "/><polygon points="120.3,754.5 90.9,844.9 84.1,839.9 114.4,746.4  "/><polygon points="269.4,1050.6 175.9,1020.2 175.9,1011.7 266.4,1041.1  "/><polygon points="660,1169 647,1173.3 582.1,1152.2 608.1,1152.2  "/><polygon points="355.8,1078.7 278.9,1053.7 275.8,1044.2 347.8,1067.6  "/><polygon points="844.9,1229.1 839.9,1236 746.4,1205.6 754.5,1199.7  "/><path d="M1258.8,409.7l-20.2,62.3l-6.8-5l19.4-59.8c5-15.5,3.7-32-3.7-46.6c-7.4-14.5-20-25.3-35.5-30.3l-59.8-19.4v-8.5l62.3,20.2   c17.5,5.7,31.8,17.9,40.2,34.3C1263,373.5,1264.5,392.2,1258.8,409.7z"/><polygon points="738,167.9 711.9,167.9 660,151 673,146.8  "/><polygon points="1173.3,673 1152.1,738 1152.1,711.9 1169,660  "/><polygon points="433.8,1104 368.8,1082.9 360.8,1071.8 412.7,1088.7  "/><polygon points="1050.6,1050.6 1020.2,1144.1 1011.7,1144.1 1041.1,1053.7  "/><path d="M472,81.4l-5,6.9l-59.8-19.4c-6.2-2-12.6-3-18.8-3c-25.7,0-49.7,16.4-58.1,42.2l-19.4,59.8h-8.5l20.2-62.3   c11.8-36.2,50.8-56.1,87-44.3L472,81.4z"/><polygon points="882.5,223.3 736.7,175.9 762.7,175.9 861.5,208  "/><polygon points="1202.5,583.1 1177.5,660 1173.3,647 1196.6,575  "/><polygon points="762.8,175.9 738,167.9 712,167.9 736.7,175.9  "/><polygon points="175.9,1011.7 167.9,1009.1 167.9,1017.6 175.9,1020.2  "/><polygon points="175.9,557.3 167.9,582.1 167.9,608.1 175.9,583.4  "/><polygon points="1011.7,1144.1 1009.1,1152.2 1017.6,1152.2 1020.2,1144.1  "/><polygon points="557.3,1144.1 582.1,1152.2 608.1,1152.2 583.4,1144.1  "/><polygon points="1144.1,762.7 1152.2,738 1152.2,711.9 1144.1,736.7  "/><polygon points="1144.1,308.3 1152.2,310.9 1152.2,302.4 1144.1,299.8  "/><polygon points="308.3,175.9 310.9,167.9 302.4,167.9 299.8,175.9  "/><polygon points="151,660 146.8,647 142.5,660 146.8,673  "/><polygon points="266.4,1041.1 269.4,1050.6 278.9,1053.7 275.8,1044.2  "/><polygon points="1053.7,278.9 1050.6,269.4 1041.1,266.4 1044.2,275.8  "/><polygon points="1169,660 1173.3,673 1177.5,660 1173.3,647  "/><polygon points="660,1169 647,1173.3 660,1177.5 673,1173.3  "/><polygon points="1041.1,1053.7 1050.6,1050.6 1053.7,1041.1 1044.2,1044.2  "/><polygon points="660,151 673,146.8 660,142.5 647,146.8  "/><polygon points="278.9,266.4 269.4,269.4 266.4,278.9 275.8,275.8  "/><polygon points="1202.5,583.1 1205.6,573.6 1199.7,565.6 1196.6,575  "/><polygon points="360.8,1071.8 347.8,1067.6 355.8,1078.7 368.8,1082.9  "/><polygon points="583.1,117.5 573.6,114.5 565.6,120.3 575,123.4  "/><polygon points="959.2,248.2 972.2,252.4 964.2,241.4 951.1,237.1  "/><polygon points="248.2,360.8 252.4,347.8 241.4,355.9 237.1,368.9  "/><polygon points="1071.8,959.2 1067.6,972.2 1078.7,964.2 1082.9,951.2  "/><polygon points="117.5,737 114.5,746.4 120.3,754.5 123.4,745  "/><polygon points="737,1202.5 746.4,1205.6 754.5,1199.7 745,1196.6  "/><polygon points="231.3,412.7 216,433.8 208,458.5 223.3,437.5  "/><polygon points="475.1,90.9 480.1,84.1 472,81.5 467,88.3  "/><polygon points="844.9,1229.1 839.9,1236 848,1238.6 853,1231.7  "/><polygon points="412.7,1088.7 433.8,1104 458.6,1112 437.5,1096.7  "/><polygon points="907.3,231.3 886.2,216 861.5,208 882.5,223.3  "/><polygon points="1088.7,907.3 1104,886.2 1112,861.4 1096.7,882.5  "/><polygon points="1229.1,475.1 1236,480.1 1238.6,472 1231.7,467.1  "/><polygon points="90.9,844.9 84.1,839.9 81.5,848 88.3,853  "/></g></g><g id="SvgjsG1879" featureKey="nameFeature-0" transform="matrix(1.598752729647086,0,0,1.598752729647086,150.98869127646327,7.256971415060363)" fill="#ffffff"><path d="M8.64 13.600000000000001 c0.2 0 0.36 0.16 0.36 0.36 l0 21 l8.64 0 c0.2 0 0.36 0.16 0.36 0.36 l0 4.32 c0 0.2 -0.16 0.36 -0.36 0.36 l-13.56 0 c-0.2 0 -0.32 -0.16 -0.32 -0.36 l0 -25.68 c0 -0.2 0.12 -0.36 0.32 -0.36 l4.56 0 z M6.16 16.04 l0 21.52 c0 0.08 0.08 0.2 0.24 0.2 l9.24 0 c0.32 0 0.32 -0.52 0 -0.52 l-9.04 0 l0 -21.2 c0 -0.28 -0.44 -0.32 -0.44 0 z M23.92 40 c-0.2 0 -0.32 -0.16 -0.32 -0.36 l0 -25.68 c0 -0.2 0.12 -0.36 0.32 -0.36 l4.56 0 c0.2 0 0.36 0.16 0.36 0.36 l0 25.68 c0 0.2 -0.16 0.36 -0.36 0.36 l-4.56 0 z M26 16 l0 21.56 c0 0.36 0.44 0.36 0.44 0 l0 -21.56 c0 -0.28 -0.44 -0.28 -0.44 0 z M47.12 13.96 c0 -0.2 0.16 -0.36 0.36 -0.36 l4.6 0 c0.2 0 0.36 0.16 0.36 0.36 l0 25.68 c0 0.2 -0.16 0.36 -0.36 0.36 l-4.44 0 c-0.16 0 -0.32 -0.08 -0.36 -0.2 l-5.84 -13.16 l0 13 c0 0.2 -0.16 0.36 -0.36 0.36 l-4.56 0 c-0.2 0 -0.32 -0.16 -0.32 -0.36 l0 -25.68 c0 -0.2 0.12 -0.36 0.32 -0.36 l4.72 0 c0.16 0 0.24 0.12 0.28 0.2 l5.6 12.92 l0 -12.76 z M50 37.6 l0 -21.6 c0 -0.28 -0.52 -0.36 -0.52 0 l0 20.56 l-10.44 -20.64 c-0.12 -0.16 -0.44 -0.16 -0.44 0.08 l0 21.56 c0 0.36 0.48 0.36 0.48 0 l0 -20.52 l10.4 20.6 c0.16 0.28 0.52 0.2 0.52 -0.04 z M76.76 13.600000000000001 c0.28 0 0.44 0.32 0.28 0.56 l-6.28 8.68 l6.64 16.72 c0.08 0.2 -0.04 0.44 -0.32 0.44 l-5.4 0 c-0.12 0 -0.24 -0.08 -0.28 -0.24 l-4.16 -11.96 l-2.04 2.8 l0 9.04 c0 0.2 -0.16 0.36 -0.36 0.36 l-4.56 0 c-0.2 0 -0.32 -0.16 -0.32 -0.36 l0 -25.68 c0 -0.2 0.12 -0.36 0.32 -0.36 l4.56 0 c0.2 0 0.36 0.16 0.36 0.36 l0 8.28 l6.28 -8.48 c0.12 -0.16 0.16 -0.16 0.32 -0.16 l4.96 0 z M62.36 16 l0 21.56 c0 0.28 0.44 0.28 0.44 0 l0 -7.76 l5 -6.64 l5.6 14.48 c0.08 0.2 0.56 0.08 0.44 -0.24 l-5.68 -14.76 l5.2 -6.92 c0.2 -0.2 -0.16 -0.56 -0.4 -0.32 l-10.16 13.6 l0 -13 c0 -0.28 -0.44 -0.28 -0.44 0 z M94.92 24 l0 -10.04 c0 -0.2 0.16 -0.36 0.36 -0.36 l4.56 0 c0.2 0 0.36 0.16 0.36 0.36 l0 25.68 c0 0.2 -0.16 0.36 -0.36 0.36 l-4.56 0 c-0.2 0 -0.36 -0.16 -0.36 -0.36 l0 -10.64 l-6.48 0 l0 10.64 c0 0.2 -0.16 0.36 -0.36 0.36 l-4.56 0 c-0.2 0 -0.32 -0.16 -0.32 -0.36 l0 -25.68 c0 -0.2 0.12 -0.36 0.32 -0.36 l4.56 0 c0.2 0 0.36 0.16 0.36 0.36 l0 10.04 l6.48 0 z M85.52 37.52 c0 0.32 0.52 0.28 0.52 0 l0 -10.72 l11.24 0 l0 10.72 c0 0.28 0.44 0.32 0.44 0 l0 -21.52 c0 -0.28 -0.44 -0.36 -0.44 0 l0 10.24 l-11.24 0 l0 -10.24 c0 -0.28 -0.52 -0.28 -0.52 0 l0 21.52 z M120.4 30.759999999999998 l0 -16.8 c0 -0.2 0.16 -0.36 0.36 -0.36 l4.56 0 c0.2 0 0.36 0.16 0.36 0.36 l0 18.08 c0 5.76 -3.16 8.36 -9.12 8.36 c-5.64 0 -9.16 -2.24 -9.16 -8.36 l0 -18.08 c0 -0.2 0.16 -0.36 0.36 -0.36 l4.6 0 c0.2 0 0.36 0.16 0.36 0.36 l0 16.8 c0 3.48 1.96 4.24 3.6 4.24 l0.48 0 c2.48 0 3.6 -1.68 3.6 -4.24 z M109.88 16.16 l0 15.56 c0 3.6 2.44 6.2 6.24 6.2 l1 0 c3.8 0 6.28 -2.72 6.28 -6.2 l0 -15.56 c0 -0.36 -0.48 -0.4 -0.48 0 l0 15.56 c0 3.28 -2.36 5.68 -5.8 5.68 l-1 0 c-3.36 0 -5.76 -2.16 -5.76 -5.68 l0 -15.56 c0 -0.36 -0.48 -0.36 -0.48 0 z M147.96 20.44 c0 1.56 -0.24 2.92 -0.8 3.92 c1.52 1.44 2.16 3.76 2.16 7 c0 3.44 -0.72 5.88 -2.36 7.16 c-1.56 1.24 -3.76 1.48 -5.96 1.48 l-7.8 0 c-0.2 0 -0.32 -0.16 -0.32 -0.36 l0 -25.68 c0 -0.2 0.12 -0.36 0.32 -0.36 l6.4 0 c2.16 0 4.4 0.16 5.92 1.16 c1.88 1.2 2.44 3.36 2.44 5.68 z M138.16 18.84 l0 3.6 l2.44 0 c1.28 0 1.96 -0.4 1.96 -1.8 s-1.04 -1.8 -2.8 -1.8 l-1.6 0 z M139.68 34.76 c2.2 0 4.28 -0.96 4.28 -3.52 c0 -1.92 -1.36 -3.44 -3.4 -3.44 l-2.4 0 l0 6.96 l1.52 0 z M135.20000000000002 16.12 l0 21.32 c0 0.2 0.16 0.28 0.32 0.28 l5.36 0 c3.88 0 6.2 -1.96 6.2 -6.16 c0 -3 -0.68 -6.12 -3.8 -7 c1.84 -0.6 2.32 -2.44 2.32 -4.4 c0 -3.2 -1.8 -4.36 -5.04 -4.36 l-5.04 0 c-0.24 0 -0.32 0.12 -0.32 0.32 z M140.28 37.24 l-4.56 0 l0 -12.32 l5.64 0 c4.12 0 5.16 2.68 5.16 6.64 c0 4.04 -2.2 5.84 -6.24 5.68 z M145.12 20.16 c0 3.24 -1.36 4.24 -4.64 4.24 l-4.76 0 l0 -8.08 l4.84 0 c2.36 0 4.56 0.44 4.56 3.84 z"/></g><g id="SvgjsG1880" featureKey="sloganFeature-0" transform="matrix(1.8445345865763774,0,0,1.8445345865763774,153.53227498603184,79.49405687509866)" fill="#ffffff"><path d="M4.32 6.800000000000001 c0.1 0 0.18 0.08 0.18 0.18 l0 10.5 l4.32 0 c0.1 0 0.18 0.08 0.18 0.18 l0 2.16 c0 0.1 -0.08 0.18 -0.18 0.18 l-6.78 0 c-0.1 0 -0.16 -0.08 -0.16 -0.18 l0 -12.84 c0 -0.1 0.06 -0.18 0.16 -0.18 l2.28 0 z M9.88 19.4 l0 0.58 l-0.64 -0.62 l0 -0.58 z M9.7 20.88 l-0.06 0 l-0.64 -0.66 c0.12 -0.06 0.22 -0.16 0.24 -0.32 l0.64 0.62 l0 0.18 c0 0.1 -0.08 0.18 -0.18 0.18 z M8.48 20.26 l0.6 0.62 l-0.56 0 l-0.62 -0.62 l0.58 0 z M7.98 20.88 l-0.58 0 l-0.62 -0.62 l0.56 0 z M4.74 8.1 l0 -0.54 l0.64 0.62 l0 0.54 z M5.38 9.3 l0 0.56 l-0.64 -0.64 l0 -0.54 z M4.74 10.36 l0 -0.56 l0.64 0.62 l0 0.56 z M4.74 11.48 l0 -0.56 l0.64 0.6 l0 0.58 z M4.74 12.6 l0 -0.54 l0.64 0.6 l0 0.56 z M9.88 18.5 l0 0.36 l-0.64 -0.64 l0 -0.4 l0.58 0.58 c0.02 0.02 0.06 0.06 0.06 0.1 z M4.74 13.719999999999999 l0 -0.56 l0.64 0.62 l0 0.58 z M4.74 14.86 l0 -0.58 l0.64 0.62 l0 0.58 z M4.74 15.98 l0 -0.58 l0.64 0.62 l0 0.56 z M4.74 17.1 l0 -0.58 l0.64 0.64 l0 0.06 l-0.5 0 z M5.68 20.26 l0.54 0 l0.62 0.62 l-0.56 0 z M4.54 20.26 l0.56 0 l0.62 0.62 l-0.58 0 z M3.42 20.26 l0.56 0 l0.62 0.62 l-0.58 0 z M2.84 20.26 l0.64 0.62 l-0.56 0 l-0.62 -0.62 l0.54 0 z M14.581499999999998 20 c-0.1 0 -0.16 -0.08 -0.16 -0.18 l0 -12.84 c0 -0.1 0.06 -0.18 0.16 -0.18 l2.28 0 c0.1 0 0.18 0.08 0.18 0.18 l0 12.84 c0 0.1 -0.08 0.18 -0.18 0.18 l-2.28 0 z M17.2815 8.12 l0 -0.54 l0.64 0.6 l0 0.58 z M17.2815 9.26 l0 -0.56 l0.64 0.6 l0 0.58 z M17.2815 10.38 l0 -0.58 l0.64 0.62 l0 0.56 z M17.2815 11.5 l0 -0.58 l0.64 0.64 l0 0.54 z M17.2815 12.620000000000001 l0 -0.56 l0.64 0.62 l0 0.54 z M17.2815 13.76 l0 -0.58 l0.64 0.62 l0 0.56 z M17.2815 14.879999999999999 l0 -0.58 l0.64 0.62 l0 0.56 z M17.2815 15.98 l0 -0.56 l0.64 0.6 l0 0.58 z M17.2815 17.1 l0 -0.54 l0.64 0.62 l0 0.54 z M17.2815 18.22 l0 -0.54 l0.64 0.6 l0 0.58 z M17.2815 19.36 l0 -0.56 l0.64 0.6 l0 0.58 z M17.0415 20.22 c0.12 -0.04 0.22 -0.16 0.24 -0.32 l0.64 0.62 l0 0.18 c0 0.1 -0.08 0.18 -0.18 0.18 l-0.06 0 z M15.9415 20.26 l0.58 0 l0.62 0.62 l-0.58 0 z M15.4415 20.88 l-0.6 -0.62 l0.54 0 l0.64 0.62 l-0.58 0 z M28.803 6.98 c0 -0.1 0.08 -0.18 0.18 -0.18 l2.3 0 c0.1 0 0.18 0.08 0.18 0.18 l0 12.84 c0 0.1 -0.08 0.18 -0.18 0.18 l-2.22 0 c-0.08 0 -0.16 -0.04 -0.18 -0.1 l-2.92 -6.58 l0 6.5 c0 0.1 -0.08 0.18 -0.18 0.18 l-2.28 0 c-0.1 0 -0.16 -0.08 -0.16 -0.18 l0 -12.84 c0 -0.1 0.06 -0.18 0.16 -0.18 l2.36 0 c0.08 0 0.12 0.06 0.14 0.1 l2.8 6.46 l0 -6.38 z M32.343 8.22 l0 0.56 l-0.64 -0.6 l0 -0.58 z M32.343 9.36 l0 0.54 l-0.64 -0.6 l0 -0.58 z M32.343 10.48 l0 0.54 l-0.64 -0.6 l0 -0.56 z M32.343 11.6 l0 0.56 l-0.64 -0.6 l0 -0.58 z M32.343 12.719999999999999 l0 0.56 l-0.64 -0.62 l0 -0.56 z M26.843 7.699999999999999 l0.1 0.18 l-0.4 -0.38 l-0.06 -0.14 z M32.343 13.82 l0 0.58 l-0.64 -0.62 l0 -0.56 z M27.363 8.88 l0.42 0.98 l-0.38 -0.38 l-0.44 -1 z M28.563000000000002 11.66 l0 0.1 l-0.3 -0.3 l-0.42 -0.98 l0.36 0.38 z M32.343 14.96 l0 0.56 l-0.64 -0.62 l0 -0.54 z M32.343 16.08 l0 0.58 l-0.64 -0.64 l0 -0.54 z M32.343 17.2 l0 0.58 l-0.64 -0.62 l0 -0.56 z M32.343 18.32 l0 0.58 l-0.64 -0.62 l0 -0.58 z M32.343 19.46 l0 0.56 l-0.64 -0.62 l0 -0.58 z M26.203000000000003 15.02 l0 -0.52 l0.44 0.92 z M32.163 20.88 l-0.1 0 l-0.66 -0.66 c0.16 -0.04 0.26 -0.14 0.28 -0.26 l0.66 0.62 l0 0.12 c0 0.1 -0.08 0.18 -0.18 0.18 z M26.843 16.2 l0 0.56 l-0.64 -0.64 l0 -0.54 z M30.943 20.88 l-0.64 -0.62 l0.58 0 l0.62 0.62 l-0.56 0 z M26.843 17.32 l0 0.56 l-0.64 -0.6 l0 -0.58 z M29.783 20.82 l-0.54 -0.56 l0.52 0 l0.62 0.62 l-0.48 0 c-0.04 0 -0.06 0 -0.12 -0.06 z M26.843 18.46 l0 0.54 l-0.64 -0.62 l0 -0.56 z M26.843 19.56 l0 0.56 l-0.64 -0.62 l0 -0.54 z M25.843 20.26 c0.14 -0.04 0.26 -0.1 0.32 -0.24 l0.68 0.66 l0 0.02 c0 0.1 -0.08 0.18 -0.18 0.18 l-0.2 0 z M25.263 20.26 l0.62 0.62 l-0.54 0 l-0.64 -0.62 l0.56 0 z M23.683 20.26 l0.48 0 l0.6 0.62 l-0.4 0 c-0.06 0 -0.08 -0.02 -0.1 -0.06 c-0.06 -0.04 -0.32 -0.32 -0.58 -0.56 z M46.2445 6.800000000000001 c0.14 0 0.22 0.16 0.14 0.28 l-3.14 4.34 l3.32 8.36 c0.04 0.1 -0.02 0.22 -0.16 0.22 l-2.7 0 c-0.06 0 -0.12 -0.04 -0.14 -0.12 l-2.08 -5.98 l-1.02 1.4 l0 4.52 c0 0.1 -0.08 0.18 -0.18 0.18 l-2.28 0 c-0.1 0 -0.16 -0.08 -0.16 -0.18 l0 -12.84 c0 -0.1 0.06 -0.18 0.16 -0.18 l2.28 0 c0.1 0 0.18 0.08 0.18 0.18 l0 4.14 l3.14 -4.24 c0.06 -0.08 0.08 -0.08 0.16 -0.08 l2.48 0 z M46.444500000000005 7.4 c0.12 -0.2 0.14 -0.22 0.16 -0.24 l0.58 0.6 c0.08 0.06 0.08 0.12 0.02 0.2 l-0.1 0.12 z M45.9645 8.06 l0.24 -0.34 l0.68 0.68 l-0.22 0.32 z M45.5045 8.7 l0.24 -0.32 l0.66 0.7 l-0.22 0.32 z M45.9645 9.72 l-0.26 0.34 l-0.66 -0.7 l0.22 -0.34 z M45.4845 10.38 l-0.24 0.32 l-0.68 -0.7 l0.22 -0.32 z M40.7045 7.16 l0.58 0.56 c0.02 0.04 0.06 0.06 0.06 0.1 l0 0.08 l-0.64 -0.62 l0 -0.12 z M45.0045 11.02 l-0.22 0.34 l-0.7 -0.7 l0.26 -0.34 z M44.5445 11.68 l-0.24 0.32 l-0.7 -0.68 l0.26 -0.34 z M41.344500000000004 8.46 l0 0.56 l-0.64 -0.62 l0 -0.54 z M41.304500000000004 9.56 l-0.24 0.32 l-0.36 -0.36 l0 -0.54 z M43.7445 11.98 l0.4 0.42 l0.36 0.92 l-0.4 -0.4 z M40.7045 10.38 l0 -0.3 l0.14 0.12 z M44.4845 13.86 l0.4 0.42 l0.38 0.92 l-0.42 -0.42 z M45.2045 15.719999999999999 l0.44 0.4 l0.36 0.96 l-0.42 -0.42 z M45.9645 17.58 l0.42 0.42 l0.38 0.96 l-0.42 -0.44 z M41.5645 14.86 l-0.28 -0.26 l0.12 -0.18 z M47.1445 19.88 l0.3 0.74 c0.02 0.06 0.02 0.08 0 0.14 l-0.68 -0.68 c0.08 -0.12 0.1 -0.28 0.04 -0.4 l-0.1 -0.22 z M40.804500000000004 15.26 l0.26 -0.34 l0.68 0.68 l-0.24 0.32 z M46.444500000000005 20.88 l-0.6 -0.62 l0.54 0 l0.62 0.62 l-0.56 0 z M41.344500000000004 16.32 l0 0.56 l-0.64 -0.62 l0 -0.56 z M44.7045 20.26 l0.56 0 l0.62 0.62 l-0.58 0 z M43.8845 20.26 l0.26 0 l0.62 0.62 l-0.18 0 c-0.04 0 -0.1 -0.02 -0.12 -0.06 c-0.06 -0.04 -0.36 -0.34 -0.58 -0.56 z M41.344500000000004 17.46 l0 0.54 l-0.64 -0.62 l0 -0.56 z M41.344500000000004 18.56 l0 0.56 l-0.64 -0.62 l0 -0.54 z M40.7045 19.62 l0 -0.54 l0.64 0.6 l0 0.58 z M41.164500000000004 20.88 l-0.32 0 l-0.64 -0.62 l0.08 0 c0.16 0 0.26 -0.06 0.32 -0.16 l0.7 0.68 c-0.02 0.04 -0.1 0.1 -0.14 0.1 z M40.2645 20.88 l-0.56 0 l-0.62 -0.62 l0.58 0 z M38.1845 20.26 l0.36 0 l0.6 0.62 l-0.28 0 c-0.06 0 -0.08 -0.02 -0.1 -0.06 c-0.06 -0.04 -0.32 -0.32 -0.58 -0.56 z M62.347500000000004 20 c-0.1 0 -0.16 -0.08 -0.16 -0.18 l0 -12.84 c0 -0.1 0.06 -0.18 0.16 -0.18 l2.28 0 c0.1 0 0.18 0.08 0.18 0.18 l0 12.84 c0 0.1 -0.08 0.18 -0.18 0.18 l-2.28 0 z M65.0475 8.12 l0 -0.54 l0.64 0.6 l0 0.58 z M65.0475 9.26 l0 -0.56 l0.64 0.6 l0 0.58 z M65.0475 10.38 l0 -0.58 l0.64 0.62 l0 0.56 z M65.0475 11.5 l0 -0.58 l0.64 0.64 l0 0.54 z M65.0475 12.620000000000001 l0 -0.56 l0.64 0.62 l0 0.54 z M65.0475 13.76 l0 -0.58 l0.64 0.62 l0 0.56 z M65.0475 14.879999999999999 l0 -0.58 l0.64 0.62 l0 0.56 z M65.0475 15.98 l0 -0.56 l0.64 0.6 l0 0.58 z M65.0475 17.1 l0 -0.54 l0.64 0.62 l0 0.54 z M65.0475 18.22 l0 -0.54 l0.64 0.6 l0 0.58 z M65.0475 19.36 l0 -0.56 l0.64 0.6 l0 0.58 z M64.8075 20.22 c0.12 -0.04 0.22 -0.16 0.24 -0.32 l0.64 0.62 l0 0.18 c0 0.1 -0.08 0.18 -0.18 0.18 l-0.06 0 z M63.7075 20.26 l0.58 0 l0.62 0.62 l-0.58 0 z M63.2075 20.88 l-0.6 -0.62 l0.54 0 l0.64 0.62 l-0.58 0 z M70.329 9.3 c-0.1 0 -0.18 -0.08 -0.18 -0.18 l0 -2.14 c0 -0.1 0.08 -0.18 0.18 -0.18 l8.34 0 c0.1 0 0.18 0.08 0.18 0.18 l0 2.14 c0 0.1 -0.08 0.18 -0.18 0.18 l-2.84 0 l0 10.52 c0 0.1 -0.08 0.18 -0.18 0.18 l-2.3 0 c-0.1 0 -0.18 -0.08 -0.18 -0.18 l0 -10.52 l-2.84 0 z M79.109 7.16 c0.2 0.2 0.44 0.42 0.56 0.56 c0.04 0.04 0.06 0.08 0.06 0.1 l0 0.04 l-0.62 -0.64 l0 -0.06 z M79.109 8.36 l0 -0.58 l0.62 0.62 l0 0.58 z M79.109 9.12 l0 -0.22 l0.62 0.62 l0 0.48 c0 0.02 0 0.06 -0.02 0.08 l-0.68 -0.7 c0.04 -0.08 0.08 -0.16 0.08 -0.26 z M78.069 9.56 l0.56 0 l0.62 0.62 l-0.58 0 z M76.949 9.56 l0.56 0 l0.62 0.62 l-0.58 0 z M76.069 9.56 l0.3 0 l0.64 0.62 l-0.3 0 l0 0.24 l-0.64 -0.62 l0 -0.24 z M76.709 11 l0 0.56 l-0.64 -0.64 l0 -0.54 z M76.709 12.120000000000001 l0 0.56 l-0.64 -0.62 l0 -0.56 z M76.709 13.219999999999999 l0 0.58 l-0.64 -0.62 l0 -0.56 z M72.929 9.56 l0 0.46 l-0.48 -0.46 l0.48 0 z M71.949 10.18 l-0.62 -0.62 l0.54 0 l0.64 0.62 l-0.56 0 z M76.709 14.36 l0 0.56 l-0.64 -0.62 l0 -0.54 z M76.709 15.48 l0 0.58 l-0.64 -0.64 l0 -0.54 z M70.769 9.56 l0.6 0.62 l-0.16 0 c-0.06 0 -0.1 -0.02 -0.14 -0.06 l-0.56 -0.56 l0.26 0 z M76.709 16.6 l0 0.58 l-0.64 -0.62 l0 -0.58 z M76.709 17.72 l0 0.56 l-0.64 -0.6 l0 -0.58 z M76.069 18.8 l0 -0.58 l0.64 0.64 l0 0.54 z M76.709 19.98 l0 0.54 l-0.64 -0.62 l0 -0.54 z M76.469 20.88 l-0.56 0 l-0.6 -0.62 l0.36 0 c0.06 0 0.1 0 0.16 -0.04 z M75.349 20.88 l-0.54 0 l-0.64 -0.62 l0.56 0 z M73.529 20.26 l0.08 0 l0.62 0.62 c-0.06 0 -0.1 -0.02 -0.12 -0.06 z M100.732 15.379999999999999 l0 -8.4 c0 -0.1 0.08 -0.18 0.18 -0.18 l2.28 0 c0.1 0 0.18 0.08 0.18 0.18 l0 9.04 c0 2.88 -1.58 4.18 -4.56 4.18 c-2.82 0 -4.58 -1.12 -4.58 -4.18 l0 -9.04 c0 -0.1 0.08 -0.18 0.18 -0.18 l2.3 0 c0.1 0 0.18 0.08 0.18 0.18 l0 8.4 c0 1.74 0.98 2.12 1.8 2.12 l0.24 0 c1.24 0 1.8 -0.84 1.8 -2.12 z M104.232 8.2 l0 0.56 l-0.62 -0.64 l0 -0.54 z M103.61200000000001 9.26 l0 -0.56 l0.62 0.6 l0 0.58 z M103.61200000000001 10.38 l0 -0.56 l0.62 0.6 l0 0.58 z M103.61200000000001 11.5 l0 -0.54 l0.62 0.6 l0 0.56 z M103.61200000000001 12.620000000000001 l0 -0.54 l0.62 0.6 l0 0.58 z M97.772 7.82 l0 0.08 l-0.64 -0.62 l0 -0.12 l0.58 0.56 c0.02 0.04 0.06 0.06 0.06 0.1 z M103.61200000000001 13.76 l0 -0.58 l0.62 0.62 l0 0.56 z M97.772 8.46 l0 0.54 l-0.64 -0.6 l0 -0.58 z M103.61200000000001 14.879999999999999 l0 -0.58 l0.62 0.62 l0 0.56 z M97.772 9.58 l0 0.54 l-0.64 -0.6 l0 -0.56 z M103.61200000000001 16 l0 -0.58 l0.62 0.64 l0 0.54 z M103.53200000000001 17.06 c0.04 -0.18 0.06 -0.36 0.06 -0.54 l0.62 0.66 c0 0.18 0 0.34 -0.02 0.5 z M97.772 10.7 l0 0.56 l-0.64 -0.6 l0 -0.58 z M97.772 11.82 l0 0.56 l-0.64 -0.62 l0 -0.56 z M103.31200000000001 17.96 c0.06 -0.16 0.1 -0.3 0.12 -0.46 l0.68 0.68 c-0.04 0.14 -0.08 0.3 -0.12 0.42 z M102.932 18.7 c0.08 -0.12 0.16 -0.24 0.2 -0.38 l0.7 0.7 c-0.06 0.14 -0.12 0.26 -0.2 0.36 z M97.772 12.96 l0 0.54 l-0.64 -0.62 l0 -0.56 z M97.772 14.059999999999999 l0 0.56 l-0.64 -0.62 l0 -0.54 z M103.412 19.7 c-0.1 0.1 -0.18 0.2 -0.28 0.3 l-0.7 -0.7 c0.1 -0.08 0.2 -0.18 0.28 -0.28 z M102.132 19.58 l0.68 0.68 c-0.1 0.06 -0.2 0.14 -0.32 0.22 l-0.7 -0.68 c0.12 -0.08 0.24 -0.14 0.34 -0.22 z M97.772 15.18 l0 0.58 l-0.64 -0.64 l0 -0.54 z M97.172 15.7 l0.6 0.6 c0 0.22 0.02 0.46 0.04 0.62 l-0.5 -0.5 c-0.08 -0.2 -0.12 -0.44 -0.14 -0.72 z M101.432 19.98 l0.68 0.68 c-0.14 0.04 -0.28 0.1 -0.42 0.14 l-0.68 -0.64 c0.16 -0.06 0.28 -0.1 0.42 -0.18 z M100.11200000000001 20.36 c0.18 -0.04 0.32 -0.06 0.48 -0.1 l0.64 0.66 c-0.14 0.04 -0.3 0.06 -0.46 0.08 z M99.092 20.46 c0.18 0 0.34 -0.04 0.52 -0.04 l0.66 0.64 c-0.18 0 -0.38 0.02 -0.56 0.02 z M99.132 21.06 c-0.22 0 -0.42 -0.04 -0.62 -0.06 l-0.58 -0.6 c0.18 0.02 0.38 0.06 0.6 0.06 z M96.83200000000001 20.22 c0.16 0.04 0.28 0.08 0.46 0.1 l0.52 0.54 c-0.32 -0.08 -0.62 -0.2 -0.9 -0.36 l-0.4 -0.38 c0.1 0.04 0.22 0.06 0.32 0.1 z M113.89350000000002 6.800000000000001 c2.22 0 3.56 1.26 3.56 3.6 l0 2.52 c0 2.14 -1.32 3.58 -3.56 3.58 l-1.68 0 l0 3.32 c0 0.1 -0.08 0.18 -0.18 0.18 l-2.3 0 c-0.08 0 -0.14 -0.08 -0.14 -0.18 l0 -12.84 c0 -0.1 0.06 -0.18 0.14 -0.18 l4.16 0 z M114.83350000000002 12.32 l0 -1.32 c0 -1.38 -0.64 -1.52 -2.04 -1.52 l-0.58 0 l0 4.4 l0.58 0 c1.1 0 2.04 -0.2 2.04 -1.56 z M118.29350000000001 10.56 l-0.58 -0.6 c-0.02 -0.24 -0.06 -0.46 -0.1 -0.66 l0.52 0.52 c0.08 0.24 0.12 0.48 0.16 0.74 z M118.33350000000002 11.16 l0 0.56 l-0.62 -0.62 l0 -0.58 z M117.71350000000001 12.219999999999999 l0 -0.56 l0.62 0.62 l0 0.58 z M117.71350000000001 12.92 l0 -0.14 l0.62 0.62 l0 0.4 l0 0.16 l-0.62 -0.64 l0 -0.4 z M114.15350000000001 10.36 l-0.54 0 l-0.62 -0.64 c0.22 0 0.4 0 0.56 0.04 z M117.51350000000001 14.280000000000001 c0.04 -0.16 0.1 -0.3 0.12 -0.46 l0.66 0.66 c-0.04 0.14 -0.06 0.32 -0.1 0.48 z M117.19350000000001 15.059999999999999 c0.06 -0.14 0.12 -0.26 0.16 -0.38 l0.7 0.7 c-0.04 0.12 -0.12 0.24 -0.2 0.38 z M113.0935 10.4 l0 0.56 l-0.64 -0.64 l0 -0.54 z M116.69350000000001 15.68 c0.1 -0.08 0.2 -0.18 0.26 -0.28 l0.7 0.68 c-0.1 0.12 -0.16 0.22 -0.26 0.3 l-0.7 -0.68 l0 -0.02 z M113.0935 11.52 l0 0.56 l-0.64 -0.62 l0 -0.56 z M113.0935 12.66 l0 0.54 l-0.64 -0.62 l0 -0.56 z M116.05350000000001 16.18 c0.14 -0.06 0.24 -0.16 0.34 -0.22 l0.7 0.7 c-0.1 0.06 -0.2 0.14 -0.34 0.22 z M115.3135 16.52 c0.12 -0.02 0.28 -0.06 0.4 -0.14 l0.68 0.7 c-0.14 0.04 -0.28 0.1 -0.4 0.12 z M112.93350000000001 13.620000000000001 l-0.48 0 l0 -0.46 z M114.35350000000001 16.72 c0.18 -0.02 0.34 -0.02 0.5 -0.06 l0.66 0.66 c-0.16 0.04 -0.32 0.04 -0.5 0.06 z M113.25350000000002 16.759999999999998 l0.58 0 l0.62 0.62 l-0.56 0 z M112.4535 16.759999999999998 l0.26 0 l0.62 0.62 l-0.24 0 l0 0.32 l-0.64 -0.62 l0 -0.32 z M112.4535 18.2 l0 -0.58 l0.64 0.64 l0 0.54 z M112.4535 19.32 l0 -0.56 l0.64 0.62 l0 0.54 z M111.15350000000001 20.26 l0.56 0 l0.62 0.62 l-0.54 0 z M110.0335 20.26 l0.56 0 l0.62 0.62 l-0.56 0 z M112.2335 20.2 c0.12 -0.04 0.2 -0.18 0.22 -0.32 l0.64 0.62 l0 0.2 c0 0.1 -0.08 0.18 -0.18 0.18 z M125.43500000000002 16.06 l-2.2 0 c-0.1 0 -0.18 -0.08 -0.18 -0.18 l-0.54 -8.92 c0 -0.16 0.1 -0.18 0.18 -0.18 l3.26 0 c0.14 0 0.18 0.1 0.18 0.18 l-0.52 8.92 c0 0.1 -0.08 0.18 -0.18 0.18 z M124.41500000000002 16.66 c1 0 1.78 0.76 1.78 1.74 s-0.78 1.78 -1.78 1.78 c-0.96 0 -1.72 -0.8 -1.72 -1.78 s0.76 -1.74 1.72 -1.74 z M126.99500000000002 7.82 l0 0.28 l-0.66 -0.64 l0.02 -0.34 l0.58 0.58 c0.06 0.06 0.06 0.08 0.06 0.12 z M126.29500000000002 8.52 l0.02 -0.52 l0.64 0.62 l-0.04 0.54 z M126.21500000000002 9.58 l0.04 -0.52 l0.64 0.64 l-0.04 0.52 z M126.15500000000002 10.66 l0.04 -0.56 l0.64 0.66 l-0.04 0.52 z M126.75500000000001 11.8 l-0.02 0.56 l-0.64 -0.66 l0.04 -0.52 z M126.71500000000002 12.879999999999999 l-0.06 0.52 l-0.62 -0.64 l0.02 -0.54 z M126.63500000000002 13.92 l-0.02 0.54 l-0.66 -0.64 l0.06 -0.52 z M126.59500000000001 15 l-0.06 0.52 l-0.62 -0.64 l0.02 -0.52 z M126.51500000000001 16.06 l-0.02 0.52 l-0.66 -0.62 c0 -0.04 0 -0.06 0.06 -0.56 z M125.79500000000002 16.92 c-0.1 -0.06 -0.2 -0.2 -0.3 -0.22 l-0.4 -0.4 l0.34 0 c0.06 0 0.12 -0.02 0.18 -0.04 l0.64 0.66 l-0.46 0 z M127.03500000000001 19.38 l-0.64 -0.66 c0.02 -0.1 0.04 -0.2 0.04 -0.32 c0 -0.08 -0.02 -0.14 -0.02 -0.2 l0.54 0.56 c0.06 0.16 0.08 0.34 0.08 0.52 l0 0.1 z M124.63500000000002 16.42 c-0.22 -0.04 -0.38 -0.04 -0.54 0 l-0.14 -0.12 l0.56 0 z M126.09500000000001 19.56 c0.06 -0.14 0.12 -0.26 0.16 -0.38 l0.7 0.68 c-0.04 0.14 -0.12 0.26 -0.2 0.36 z M125.51500000000001 20.1 c0.1 -0.08 0.22 -0.14 0.3 -0.24 l0.7 0.7 c-0.08 0.1 -0.2 0.16 -0.3 0.24 z M125.81500000000001 20.98 c-0.16 0.04 -0.3 0.08 -0.48 0.08 l-0.64 -0.66 c0.16 -0.02 0.32 -0.04 0.44 -0.1 z M124.65500000000002 20.96 c-0.26 -0.14 -0.56 -0.36 -0.76 -0.6 c0.06 0.02 0.16 0.04 0.24 0.04 z"/></g>
			</g>
		</svg>
	